<svg width="56" height="56" viewBox="0 0 56 56" fill="none" xmlns="http://www.w3.org/2000/svg">
<rect width="56" height="56" rx="28" fill="url(#paint0_linear_722_1300)"/>
<path d="M22.5859 37.1406C22.2109 37.1406 21.9102 37.0391 21.6836 36.8359C21.457 36.6328 21.3438 36.3633 21.3438 36.0273C21.3438 35.7773 21.418 35.4336 21.5664 34.9961L25.9609 22.5625C26.1719 21.9688 26.4336 21.5391 26.7461 21.2734C27.0664 21.0078 27.4883 20.875 28.0117 20.875C28.543 20.875 28.9648 21.0078 29.2773 21.2734C29.5898 21.5391 29.8477 21.9688 30.0508 22.5625L34.4453 34.9961C34.5781 35.3945 34.6445 35.7266 34.6445 35.9922C34.6445 36.3438 34.5273 36.625 34.293 36.8359C34.0664 37.0391 33.7617 37.1406 33.3789 37.1406C33.0195 37.1406 32.7266 37.043 32.5 36.8477C32.2812 36.6445 32.1055 36.3203 31.9727 35.875L30.8711 32.5703H25.082L23.9805 35.875C23.8398 36.3281 23.6602 36.6523 23.4414 36.8477C23.2305 37.043 22.9453 37.1406 22.5859 37.1406ZM28.0469 23.7695H27.918L25.7148 30.5312H30.2383L28.0469 23.7695Z" fill="white"/>
<defs>
<linearGradient id="paint0_linear_722_1300" x1="0" y1="0" x2="56" y2="56" gradientUnits="userSpaceOnUse">
<stop stop-color="#7BD94C"/>
<stop offset="1" stop-color="#3AA64C"/>
</linearGradient>
</defs>
</svg>
