<svg width="20" height="20" viewBox="0 0 20 20" fill="none" xmlns="http://www.w3.org/2000/svg">
<rect x="1" y="1" width="18" height="18" rx="9" fill="#F23051"/>
<rect x="1" y="1" width="18" height="18" rx="9" fill="#F23051" stroke="#F2F3F5" stroke-width="2"/>
<path d="M10 13.6562C11.6455 13.6562 12.7441 12.792 12.7441 11.5127V11.5029C12.7441 10.5459 12.0605 9.94043 11.0107 9.84277V9.81348C11.8359 9.64258 12.4805 9.07129 12.4805 8.19238V8.18262C12.4805 7.05957 11.5039 6.29785 9.99023 6.29785C8.51074 6.29785 7.51953 7.11816 7.41699 8.37793L7.41211 8.43652H8.76953L8.77441 8.39258C8.83301 7.80664 9.29688 7.43066 9.99023 7.43066C10.6836 7.43066 11.0889 7.79199 11.0889 8.37793V8.3877C11.0889 8.95898 10.6104 9.34961 9.86816 9.34961H9.08203V10.3994H9.8877C10.7422 10.3994 11.2451 10.7705 11.2451 11.4443V11.4541C11.2451 12.0498 10.752 12.4697 10 12.4697C9.23828 12.4697 8.73535 12.0791 8.67188 11.5322L8.66699 11.4785H7.25586L7.26074 11.542C7.3584 12.8018 8.4082 13.6562 10 13.6562Z" fill="white"/>
<rect x="1" y="1" width="18" height="18" rx="9" stroke="#F2F3F5" stroke-width="2"/>
</svg>
