<svg width="24" height="24" viewBox="0 0 24 24" fill="none" xmlns="http://www.w3.org/2000/svg">
<g clip-path="url(#clip0_16624_21616)">
<path fill-rule="evenodd" clip-rule="evenodd" d="M12.7812 21.5C12.9881 21.5 13.1737 21.3726 13.2479 21.1795C14.1924 18.7239 16.7243 17.2621 19.3231 17.672C19.5274 17.7042 19.7305 17.6073 19.834 17.4281L20.617 16.0719C20.7204 15.8927 20.7028 15.6684 20.5728 15.5075C18.9184 13.4618 18.9184 10.5382 20.5728 8.49251C20.7028 8.33164 20.7204 8.10727 20.617 7.9281L19.834 6.5719C19.7305 6.39273 19.5274 6.29578 19.3231 6.32801C16.7242 6.73787 14.1924 5.27609 13.2479 2.82051C13.1736 2.62741 12.9881 2.5 12.7812 2.5L11.2152 2.5C11.0084 2.5 10.8228 2.62741 10.7486 2.82051C9.80411 5.2761 7.27223 6.73787 4.67341 6.32801C4.46905 6.29578 4.26595 6.39273 4.1625 6.5719L3.3795 7.9281C3.27606 8.10727 3.29364 8.33164 3.42374 8.49251C5.07811 10.5382 5.07811 13.4618 3.42374 15.5075C3.29365 15.6684 3.27606 15.8927 3.3795 16.0719L1.64745 17.0719C1.13024 16.1761 1.21816 15.0542 1.86862 14.2499C2.92981 12.9377 2.92981 11.0623 1.86862 9.75013C1.21816 8.9458 1.13024 7.82395 1.64745 6.9281L2.43045 5.5719C2.94767 4.67606 3.96319 4.19128 4.98499 4.35243C6.65199 4.61533 8.27606 3.67768 8.88187 2.10256C9.25321 1.13707 10.1808 0.5 11.2152 0.5L12.7812 0.5C13.8157 0.5 14.7433 1.13707 15.1146 2.10255C15.7204 3.67768 17.3445 4.61533 19.0115 4.35242C20.0333 4.19127 21.0488 4.67606 21.566 5.5719L22.349 6.9281C22.8662 7.82394 22.7783 8.9458 22.1279 9.75013C21.0667 11.0623 21.0667 12.9377 22.1279 14.2499C22.7783 15.0542 22.8663 16.1761 22.349 17.0719L21.566 18.4281C21.0488 19.3239 20.0333 19.8087 19.0115 19.6476C17.3445 19.3847 15.7204 20.3223 15.1146 21.8975C14.7433 22.8629 13.8157 23.5 12.7812 23.5H11.2152C10.1808 23.5 9.25322 22.8629 8.88188 21.8974C8.27606 20.3223 6.652 19.3847 4.98499 19.6476C3.96319 19.8087 2.94767 19.3239 2.43046 18.4281L1.64745 17.0719L3.3795 16.0719L4.16251 17.4281C4.26595 17.6073 4.46905 17.7042 4.67341 17.672C7.27224 17.2621 9.80412 18.7239 10.7486 21.1795C10.8228 21.3726 11.0084 21.5 11.2152 21.5H12.7812ZM7.49825 12C7.49825 9.51472 9.51297 7.5 11.9982 7.5C14.4835 7.5 16.4982 9.51472 16.4982 12C16.4982 14.4853 14.4835 16.5 11.9982 16.5C9.51297 16.5 7.49825 14.4853 7.49825 12ZM9.49825 12C9.49825 10.6193 10.6175 9.5 11.9982 9.5C13.379 9.5 14.4982 10.6193 14.4982 12C14.4982 13.3807 13.379 14.5 11.9982 14.5C10.6175 14.5 9.49825 13.3807 9.49825 12Z" fill="#71747A"/>
</g>
<defs>
<clipPath id="clip0_16624_21616">
<rect width="24" height="24" fill="white"/>
</clipPath>
</defs>
</svg>
