<svg width="64" height="56" viewBox="0 0 64 56" fill="none" xmlns="http://www.w3.org/2000/svg">
<g clip-path="url(#clip0_16545_21645)">
<path d="M36.2414 17H27.7588C26.9538 17 26.2894 17 25.7482 17.0442C25.1862 17.0901 24.6694 17.1887 24.1841 17.436C23.4315 17.8195 22.8195 18.4314 22.436 19.184C22.1888 19.6694 22.0902 20.1861 22.0443 20.7482C22 21.2894 22.0001 21.9537 22.0001 22.7587L22 29.2488C21.9997 29.9415 21.9995 30.4554 22.1036 30.9042C22.4486 32.3908 23.6093 33.5515 25.0959 33.8965C25.3655 33.959 25.6587 33.9839 26.0001 33.9938L26.0001 37.6624C26 37.7766 25.9999 37.9214 26.0111 38.0453C26.0212 38.1568 26.0524 38.4689 26.2796 38.7488C26.5226 39.0481 26.8901 39.2186 27.2755 39.2107C27.636 39.2034 27.8943 39.0256 27.986 38.9612C28.0879 38.8897 28.1983 38.7961 28.2854 38.7224L33.6986 34.142C33.7874 34.0668 33.8316 34.0297 33.8647 34.0039L33.8671 34.0021L33.8702 34.0019C33.9122 34.0002 33.9699 34 34.0862 34H36.2414C37.0464 34 37.7107 34 38.2519 33.9558C38.814 33.9099 39.3307 33.8113 39.816 33.564C40.5687 33.1805 41.1806 32.5686 41.5641 31.816C41.8114 31.3306 41.91 30.8139 41.9559 30.2518C42.0001 29.7106 42.0001 29.0463 42.0001 28.2413V22.7587C42.0001 21.9537 42.0001 21.2894 41.9559 20.7482C41.91 20.1861 41.8114 19.6694 41.5641 19.184C41.1806 18.4314 40.5687 17.8195 39.816 17.436C39.3307 17.1887 38.814 17.0901 38.2519 17.0442C37.7107 17 37.0463 17 36.2414 17Z" fill="#248BF2"/>
</g>
<rect x="33" y="9" width="18" height="18" rx="9" fill="#F23051"/>
<rect x="33" y="9" width="18" height="18" rx="9" fill="#F23051" stroke="#F2F3F5" stroke-width="2"/>
<path d="M42 21.6562C43.6455 21.6562 44.7441 20.792 44.7441 19.5127V19.5029C44.7441 18.5459 44.0605 17.9404 43.0107 17.8428V17.8135C43.8359 17.6426 44.4805 17.0713 44.4805 16.1924V16.1826C44.4805 15.0596 43.5039 14.2979 41.9902 14.2979C40.5107 14.2979 39.5195 15.1182 39.417 16.3779L39.4121 16.4365H40.7695L40.7744 16.3926C40.833 15.8066 41.2969 15.4307 41.9902 15.4307C42.6836 15.4307 43.0889 15.792 43.0889 16.3779V16.3877C43.0889 16.959 42.6104 17.3496 41.8682 17.3496H41.082V18.3994H41.8877C42.7422 18.3994 43.2451 18.7705 43.2451 19.4443V19.4541C43.2451 20.0498 42.752 20.4697 42 20.4697C41.2383 20.4697 40.7354 20.0791 40.6719 19.5322L40.667 19.4785H39.2559L39.2607 19.542C39.3584 20.8018 40.4082 21.6562 42 21.6562Z" fill="white"/>
<rect x="33" y="9" width="18" height="18" rx="9" stroke="#F2F3F5" stroke-width="2"/>
<path d="M0 4C1.10457 4 2 4.89543 2 6V50C2 51.1046 1.10457 52 0 52V4Z" fill="#248BF2"/>
<defs>
<clipPath id="clip0_16545_21645">
<rect width="24" height="24" fill="white" transform="translate(20 16)"/>
</clipPath>
</defs>
</svg>
