<svg width="13" height="14" viewBox="0 0 13 14" fill="none" xmlns="http://www.w3.org/2000/svg">
<path fill-rule="evenodd" clip-rule="evenodd" d="M2.78033 0.71967C2.48744 0.426777 2.01256 0.426777 1.71967 0.71967C1.42678 1.01256 1.42678 1.48744 1.71967 1.78033L11.7197 11.7803C12.0126 12.0732 12.4874 12.0732 12.7803 11.7803C13.0732 11.4874 13.0732 11.0126 12.7803 10.7197L10 7.93934V3.36272C10 2.15109 10 1.54527 9.76041 1.26474C9.55251 1.02133 9.24066 0.892158 8.92154 0.917273C8.55376 0.946218 8.12538 1.37459 7.26863 2.23135L5.78032 3.71966L2.78033 0.71967ZM0.819014 4.66347C1.13206 4.50396 1.5395 4.50007 2.33929 4.49998L9.96141 12.1221C9.92907 12.4118 9.86964 12.6073 9.76041 12.7352C9.55251 12.9786 9.24066 13.1078 8.92154 13.0827C8.55376 13.0537 8.12538 12.6254 7.26863 11.7686L5.70294 10.2029C5.44352 9.94349 5.3138 9.81378 5.16243 9.72102C5.02822 9.63877 4.8819 9.57817 4.72885 9.54142C4.55622 9.49998 4.37277 9.49998 4.00589 9.49998H2.4C1.55992 9.49998 1.13988 9.49998 0.819014 9.33649C0.536771 9.19268 0.3073 8.96321 0.16349 8.68096C0 8.36009 0 7.94006 0 7.09998V6.89998C0 6.0599 0 5.63986 0.16349 5.31899C0.3073 5.03675 0.536771 4.80728 0.819014 4.66347Z" fill="#C8C9CC"/>
</svg>
