<svg width="16" height="16" viewBox="0 0 16 16" fill="none" xmlns="http://www.w3.org/2000/svg">
<rect width="16" height="16" fill="#F2F3F5"/>
<path d="M8 1.75249C8 1.3369 7.66212 0.995802 7.24893 1.04039C5.96452 1.17899 4.73815 1.67112 3.70965 2.4689C2.48215 3.42105 1.60626 4.75447 1.21992 6.25916C0.833584 7.76385 0.958755 9.3543 1.57572 10.78C2.19269 12.2057 3.26639 13.3857 4.62773 14.1341C5.98906 14.8825 7.56068 15.1568 9.09505 14.9138C10.6294 14.6708 12.0393 13.9243 13.1028 12.7918C14.1662 11.6594 14.8227 10.2053 14.9689 8.65875C15.0914 7.36289 14.8498 6.06374 14.2786 4.90501C14.0949 4.53224 13.6258 4.42973 13.2749 4.65241V4.65241C12.924 4.8751 12.8254 5.33857 12.9981 5.71658C13.3965 6.58858 13.5617 7.55401 13.4706 8.51712C13.3559 9.7312 12.8405 10.8726 12.0057 11.7616C11.1709 12.6505 10.0641 13.2366 8.85961 13.4273C7.65513 13.6181 6.42142 13.4028 5.35277 12.8153C4.28412 12.2278 3.44126 11.3015 2.95694 10.1823C2.47262 9.06312 2.37436 7.81462 2.67764 6.63344C2.98091 5.45226 3.66849 4.40552 4.63208 3.65809C5.39648 3.06516 6.30011 2.68731 7.24983 2.55643C7.66153 2.49969 8 2.16808 8 1.75249V1.75249Z" fill="#9D9FA3"/>
</svg>
