<svg width="40" height="40" viewBox="0 0 40 40" fill="none" xmlns="http://www.w3.org/2000/svg">
<rect width="40" height="40" rx="20" fill="url(#paint0_linear_16624_44645)"/>
<g clip-path="url(#clip0_16624_44645)">
<path fill-rule="evenodd" clip-rule="evenodd" d="M17.2989 11.25H22.7011C23.3719 11.25 23.9255 11.25 24.3765 11.2868C24.8449 11.3251 25.2755 11.4072 25.68 11.6133C26.3072 11.9329 26.8171 12.4428 27.1367 13.07C27.3428 13.4745 27.4249 13.9051 27.4632 14.3735C27.5 14.8245 27.5 15.3781 27.5 16.0489V24.7958C27.5 25.5183 27.5 26.1167 27.4593 26.5762C27.4203 27.0169 27.3334 27.5292 27.0008 27.9186C26.5677 28.4257 25.918 28.6948 25.2532 28.6425C24.7428 28.6023 24.319 28.3014 23.9798 28.0174C23.6261 27.7213 23.203 27.2982 22.6922 26.7874L20.825 24.9201C20.5677 24.6629 20.4098 24.5059 20.2823 24.3977C20.0921 24.2362 19.9079 24.2362 19.7177 24.3977C19.5902 24.5059 19.4323 24.6629 19.175 24.9201L17.3078 26.7874C16.797 27.2982 16.3739 27.7213 16.0202 28.0174C15.681 28.3014 15.2572 28.6023 14.7468 28.6425C14.082 28.6948 13.4323 28.4257 12.9992 27.9186C12.6666 27.5292 12.5797 27.0169 12.5407 26.5762C12.5 26.1167 12.5 25.5183 12.5 24.7959L12.5 16.0489C12.5 15.3781 12.5 14.8245 12.5368 14.3735C12.5751 13.9051 12.6572 13.4745 12.8633 13.07C13.1829 12.4428 13.6928 11.9329 14.32 11.6133C14.7245 11.4072 15.1551 11.3251 15.6235 11.2868C16.0745 11.25 16.6281 11.25 17.2989 11.25Z" fill="white"/>
</g>
<defs>
<linearGradient id="paint0_linear_16624_44645" x1="0" y1="0" x2="40" y2="40" gradientUnits="userSpaceOnUse">
<stop stop-color="#FFC619"/>
<stop offset="1" stop-color="#FF7919"/>
</linearGradient>
<clipPath id="clip0_16624_44645">
<rect width="20" height="20" fill="white" transform="translate(10 10)"/>
</clipPath>
</defs>
</svg>
