<svg width="16" height="16" viewBox="0 0 16 16" fill="none" xmlns="http://www.w3.org/2000/svg">
<g clip-path="url(#clip0_6664_1085)">
<path fill-rule="evenodd" clip-rule="evenodd" d="M7.9987 3.23213C7.21958 2.06974 6.09038 1.33334 4.66536 1.33334C1.85519 1.33334 0.332031 3.75079 0.332031 6.00001C0.332031 8.50999 1.72261 10.5678 3.2233 12.063C4.40925 13.2447 5.79191 14.228 7.25694 15.033C7.37741 15.0992 7.5335 15.185 7.734 15.2256C7.89898 15.259 8.09841 15.259 8.26339 15.2256C8.46389 15.185 8.61998 15.0992 8.74046 15.033C10.2055 14.228 11.5882 13.2447 12.7741 12.063C14.2748 10.5678 15.6654 8.50999 15.6654 6.00001C15.6654 3.75079 14.1422 1.33334 11.332 1.33334C9.90701 1.33334 8.77782 2.06974 7.9987 3.23213Z" fill="url(#paint0_linear_6664_1085)"/>
</g>
<defs>
<linearGradient id="paint0_linear_6664_1085" x1="7.9989" y1="15.2509" x2="7.9989" y2="1.33353" gradientUnits="userSpaceOnUse">
<stop stop-color="#DB0100"/>
<stop offset="0.5836" stop-color="#F31317"/>
<stop offset="1" stop-color="#FF1C23"/>
</linearGradient>
<clipPath id="clip0_6664_1085">
<rect width="16" height="16" fill="white"/>
</clipPath>
</defs>
</svg>
