<svg width="56" height="56" viewBox="0 0 56 56" fill="none" xmlns="http://www.w3.org/2000/svg">
<rect width="56" height="56" rx="28" fill="url(#paint0_linear_1_144)"/>
<path d="M29.5352 22.3633C29.5352 21.8945 29.6484 21.5312 29.875 21.2734C30.1094 21.0156 30.4336 20.8867 30.8477 20.8867C31.2695 20.8867 31.5977 21.0156 31.832 21.2734C32.0742 21.5312 32.1953 21.8945 32.1953 22.3633V32.1133C32.1953 33.1992 31.9922 34.1367 31.5859 34.9258C31.1875 35.707 30.6094 36.3047 29.8516 36.7188C29.1016 37.1328 28.207 37.3398 27.168 37.3398C26.3398 37.3398 25.6016 37.2227 24.9531 36.9883C24.3047 36.7539 23.7617 36.4102 23.3242 35.957C23.0586 35.668 22.8477 35.3555 22.6914 35.0195C22.543 34.6836 22.4688 34.3516 22.4688 34.0234C22.4688 33.6484 22.5703 33.3516 22.7734 33.1328C22.9766 32.9141 23.2461 32.8047 23.582 32.8047C23.8242 32.8047 24.0273 32.8672 24.1914 32.9922C24.3633 33.1094 24.5352 33.3086 24.707 33.5898C25.2539 34.543 26.0625 35.0195 27.1328 35.0195C27.9062 35.0195 28.5 34.7773 28.9141 34.293C29.3281 33.8086 29.5352 33.1016 29.5352 32.1719V22.3633Z" fill="white"/>
<defs>
<linearGradient id="paint0_linear_1_144" x1="0" y1="0" x2="56" y2="56" gradientUnits="userSpaceOnUse">
<stop stop-color="#FFC619"/>
<stop offset="1" stop-color="#FF7919"/>
</linearGradient>
</defs>
</svg>
