<svg width="24" height="24" viewBox="0 0 24 24" fill="none" xmlns="http://www.w3.org/2000/svg">
<rect x="1" y="1" width="22" height="22" rx="11" fill="#40B855"/>
<path d="M9.93102 14.0669C13.113 17.2489 15.5879 16.8953 16.6485 15.8347C17.2343 15.2489 17.2343 14.2991 16.6485 13.7133L15.931 12.9958C15.5462 12.611 14.9224 12.611 14.5377 12.9958C14.0979 13.4355 13.443 13.5876 12.9136 13.2612C12.5552 13.0403 12.127 12.7273 11.6988 12.2991C11.2706 11.8709 10.9576 11.4427 10.7367 11.0843C10.4103 10.5549 10.5624 9.9 11.0021 9.46023C11.3869 9.07548 11.3869 8.45169 11.0021 8.06695L10.2846 7.34937C9.69878 6.76359 8.74903 6.76359 8.16325 7.34937C7.10259 8.41003 6.74904 10.8849 9.93102 14.0669Z" fill="white"/>
</svg>
