<svg width="24" height="24" viewBox="0 0 24 24" fill="none" xmlns="http://www.w3.org/2000/svg">
<rect x="1" y="1" width="22" height="22" rx="11" fill="#248BF2"/>
<path fill-rule="evenodd" clip-rule="evenodd" d="M7.875 12C7.875 9.72183 9.72183 7.875 12 7.875C14.2779 7.875 16.125 9.72397 16.125 12C16.125 12.5838 15.9912 12.9046 15.8721 13.061C15.7678 13.198 15.6473 13.25 15.5 13.25C15.2546 13.25 15.1078 13.171 15.0048 13.0437C14.8844 12.895 14.75 12.5859 14.75 12C14.75 10.4812 13.5188 9.25 12 9.25C10.4812 9.25 9.25 10.4812 9.25 12C9.25 13.5188 10.4812 14.75 12 14.75C12.7202 14.75 13.3756 14.4732 13.8659 14.0202C14.2923 14.5261 14.8835 14.75 15.5 14.75C16.1027 14.75 16.6697 14.4893 17.0654 13.9699C17.4463 13.4699 17.625 12.7908 17.625 12C17.625 8.89603 15.1068 6.375 12 6.375C8.8934 6.375 6.375 8.8934 6.375 12C6.375 15.1066 8.8934 17.625 12 17.625C12.6026 17.625 13.1844 17.53 13.7306 17.3536C14.1247 17.2262 14.341 16.8035 14.2137 16.4093C14.0864 16.0152 13.6636 15.7989 13.2694 15.9262C12.8705 16.0551 12.4441 16.125 12 16.125C9.72183 16.125 7.875 14.2782 7.875 12ZM13.25 12C13.25 11.3096 12.6904 10.75 12 10.75C11.3096 10.75 10.75 11.3096 10.75 12C10.75 12.6904 11.3096 13.25 12 13.25C12.6904 13.25 13.25 12.6904 13.25 12Z" fill="white"/>
</svg>
