<svg width="24" height="24" viewBox="0 0 24 24" fill="none" xmlns="http://www.w3.org/2000/svg">
<g clip-path="url(#clip0_16686_44229)">
<path fill-rule="evenodd" clip-rule="evenodd" d="M3.86922 8.11091L9.87963 2.1005C12.4366 -0.456504 16.2534 -0.0110496 18.3649 2.1005C20.4765 4.21206 20.9219 8.02876 18.3649 10.5858L12.3545 16.5962C10.8581 18.0925 8.63243 17.8239 7.40475 16.5962C6.17709 15.3685 5.90841 13.1428 7.40475 11.6464L11.2938 7.75735C11.6844 7.36683 12.3175 7.36683 12.7081 7.75735C13.0986 8.14788 13.0986 8.78104 12.7081 9.17157L8.81897 13.0607C8.19399 13.6856 8.27886 14.6419 8.81896 15.182C9.35905 15.7221 10.3153 15.8069 10.9403 15.182L16.9507 9.17157C18.6363 7.48591 18.3747 4.93869 16.9507 3.51471C15.5267 2.09073 12.9795 1.82907 11.2938 3.51471L5.28343 9.52512C2.52261 12.2859 2.81417 16.2482 5.28343 18.7175C7.75269 21.1868 11.715 21.4783 14.4758 18.7175L18.3649 14.8284C18.7554 14.4379 19.3886 14.4379 19.7791 14.8284C20.1696 15.2189 20.1696 15.8521 19.7791 16.2426L15.89 20.1317C12.2869 23.7349 7.05681 23.3193 3.86922 20.1317C0.681626 16.9441 0.266074 11.714 3.86922 8.11091Z" fill="#71747A"/>
</g>
<defs>
<clipPath id="clip0_16686_44229">
<rect width="24" height="24" fill="white"/>
</clipPath>
</defs>
</svg>
