<svg width="24" height="24" viewBox="0 0 24 24" fill="none" xmlns="http://www.w3.org/2000/svg">
<path fill-rule="evenodd" clip-rule="evenodd" d="M15.6383 20.5933C17.5032 20.703 19.0086 19.8419 20.3084 18.5421C20.6989 18.1516 20.6989 17.5184 20.3084 17.1279L17.9882 14.8078C17.5122 14.3318 16.7405 14.3318 16.2645 14.8078C15.2728 15.7995 13.6475 16.3932 12.1642 15.5565C11.525 15.196 10.7884 14.679 10.0553 13.9459C9.32223 13.2129 8.80528 12.4762 8.44473 11.837C7.60803 10.3537 8.20171 8.72847 9.19348 7.7367C9.66945 7.26072 9.66945 6.48902 9.19348 6.01305L6.87332 3.69289C6.4828 3.30237 5.84963 3.30237 5.45911 3.69289C4.15935 4.99266 3.29828 6.498 3.40799 8.36295C3.51996 10.2665 4.65483 12.7881 7.93398 16.0673C11.2131 19.3464 13.7348 20.4813 15.6383 20.5933ZM15.5209 22.5898C12.9166 22.4366 9.95813 20.9198 6.51977 17.4815C3.08141 14.0431 1.56463 11.0847 1.41144 8.48039C1.25598 5.83753 2.51623 3.80734 4.0449 2.27868C5.21647 1.10711 7.11596 1.10711 8.28754 2.27868L10.6077 4.59884C11.8647 5.85586 11.8647 7.89389 10.6077 9.15091C10.0257 9.73286 9.92995 10.3993 10.1867 10.8544C10.4683 11.3535 10.8786 11.9408 11.4695 12.5317C12.0604 13.1226 12.6477 13.533 13.1468 13.8145C13.602 14.0713 14.2684 13.9755 14.8503 13.3935C16.1074 12.1365 18.1454 12.1365 19.4024 13.3935L21.7226 15.7137C22.8941 16.8853 22.8941 18.7848 21.7226 19.9563C20.1939 21.485 18.1637 22.7453 15.5209 22.5898Z" fill="#71747A"/>
</svg>
