<svg width="16" height="16" viewBox="0 0 16 16" fill="none" xmlns="http://www.w3.org/2000/svg">
<path d="M8.0013 14.6667C12.0514 14.6667 15.3346 11.3834 15.3346 7.33333C15.3346 3.28325 12.0514 0 8.0013 0C3.95121 0 0.667969 3.28325 0.667969 7.33333C0.667969 11.3834 3.95121 14.6667 8.0013 14.6667Z" fill="url(#paint0_radial_16624_44137)"/>
<path d="M12.22 7.8073C11.3447 8.31925 10.089 7.77586 9.41528 6.59361C8.74152 5.41135 8.90483 4.03793 9.78005 3.52599C10.6553 3.01404 11.911 3.55743 12.5847 4.73969C13.2585 5.92194 13.0952 7.29536 12.22 7.8073Z" fill="white"/>
<path d="M3.78005 7.8073C4.65526 8.31925 5.91096 7.77586 6.58472 6.59361C7.25848 5.41135 7.09517 4.03793 6.21995 3.52599C5.34474 3.01404 4.08904 3.55743 3.41528 4.73969C2.74152 5.92194 2.90484 7.29536 3.78005 7.8073Z" fill="white"/>
<ellipse cx="8" cy="10.6667" rx="2" ry="2.66667" fill="#1A1626"/>
<path d="M15.9987 9.96683C15.9987 8.94495 14.0111 9.07289 12.4939 10.9885C10.9768 12.9042 11.0722 14.5741 12.0518 15.5449C13.0314 16.5157 15.6504 15.966 15.3583 13.5813C15.0663 11.1967 15.9987 10.9887 15.9987 9.96683Z" fill="url(#paint1_radial_16624_44137)"/>
<mask id="mask0_16624_44137" style="mask-type:alpha" maskUnits="userSpaceOnUse" x="11" y="9" width="5" height="7">
<path d="M15.9987 9.96683C15.9987 8.94495 14.0111 9.07289 12.4939 10.9885C10.9768 12.9042 11.0722 14.5741 12.0518 15.5449C13.0314 16.5157 15.6504 15.966 15.3583 13.5813C15.0663 11.1967 15.9987 10.9887 15.9987 9.96683Z" fill="white"/>
</mask>
<g mask="url(#mask0_16624_44137)">
<path d="M16.9993 9.99996C16.9993 9.02918 14.9487 9.08574 13.6483 10.9056C12.3478 12.7255 12.4296 14.3119 13.2693 15.2341C14.109 16.1564 16.3538 15.6342 16.1035 13.3688C15.8531 11.1033 16.9993 10.9707 16.9993 9.99996Z" fill="url(#paint2_radial_16624_44137)"/>
</g>
<path d="M0.00130224 9.96683C0.00130224 8.94495 1.98894 9.07289 3.50608 10.9885C5.02321 12.9042 4.92782 14.5741 3.9482 15.5449C2.96857 16.5157 0.349604 15.966 0.641669 13.5813C0.933734 11.1967 0.00130224 10.9887 0.00130224 9.96683Z" fill="url(#paint3_radial_16624_44137)"/>
<mask id="mask1_16624_44137" style="mask-type:alpha" maskUnits="userSpaceOnUse" x="0" y="9" width="5" height="7">
<path d="M0.00130224 9.96683C0.00130224 8.94495 1.98894 9.07289 3.50608 10.9885C5.02321 12.9042 4.92782 14.5741 3.9482 15.5449C2.96857 16.5157 0.349604 15.966 0.641669 13.5813C0.933734 11.1967 0.00130224 10.9887 0.00130224 9.96683Z" fill="white"/>
</mask>
<g mask="url(#mask1_16624_44137)">
<path d="M-0.999268 9.99996C-0.999268 9.02918 1.05135 9.08574 2.35175 10.9056C3.65215 12.7255 3.57039 14.3119 2.73071 15.2341C1.89103 16.1564 -0.353799 15.6342 -0.103458 13.3688C0.146883 11.1033 -0.999268 10.9707 -0.999268 9.99996Z" fill="url(#paint4_radial_16624_44137)"/>
</g>
<defs>
<radialGradient id="paint0_radial_16624_44137" cx="0" cy="0" r="1" gradientUnits="userSpaceOnUse" gradientTransform="translate(9.0013 15) rotate(-90.9878) scale(19.3362 19.8092)">
<stop offset="0.383216" stop-color="#FFBA0C"/>
<stop offset="0.715426" stop-color="#308EE5"/>
<stop offset="1" stop-color="#69A5FF"/>
</radialGradient>
<radialGradient id="paint1_radial_16624_44137" cx="0" cy="0" r="1" gradientUnits="userSpaceOnUse" gradientTransform="translate(18.332 12) rotate(155.376) scale(8.80025 4.71297)">
<stop stop-color="#FFBA0C"/>
<stop offset="0.749617" stop-color="#EFAA07"/>
<stop offset="1" stop-color="#8D5200"/>
</radialGradient>
<radialGradient id="paint2_radial_16624_44137" cx="0" cy="0" r="1" gradientUnits="userSpaceOnUse" gradientTransform="translate(18.6659 12) rotate(172.018) scale(5.36439 8.08965)">
<stop offset="0.5993" stop-color="#FFCA28"/>
<stop offset="1" stop-color="#EEA907"/>
</radialGradient>
<radialGradient id="paint3_radial_16624_44137" cx="0" cy="0" r="1" gradientUnits="userSpaceOnUse" gradientTransform="translate(-2.33203 12) rotate(24.6236) scale(8.80025 4.71297)">
<stop stop-color="#FFBA0C"/>
<stop offset="0.749617" stop-color="#EFAA07"/>
<stop offset="1" stop-color="#8D5200"/>
</radialGradient>
<radialGradient id="paint4_radial_16624_44137" cx="0" cy="0" r="1" gradientUnits="userSpaceOnUse" gradientTransform="translate(-2.66593 12) rotate(7.98175) scale(5.36439 8.08965)">
<stop offset="0.5993" stop-color="#FFCA28"/>
<stop offset="1" stop-color="#EEA907"/>
</radialGradient>
</defs>
</svg>
