<svg width="12" height="12" viewBox="0 0 12 12" fill="none" xmlns="http://www.w3.org/2000/svg">
<path fill-rule="evenodd" clip-rule="evenodd" d="M1.875 6C1.875 3.72183 3.72183 1.875 6 1.875C8.27794 1.875 10.125 3.72397 10.125 6C10.125 6.58379 9.99124 6.90463 9.87214 7.06098C9.7678 7.19795 9.64725 7.25 9.5 7.25C9.25464 7.25 9.10784 7.171 9.00481 7.04373C8.88442 6.89502 8.75 6.58587 8.75 6C8.75 4.48122 7.51878 3.25 6 3.25C4.48122 3.25 3.25 4.48122 3.25 6C3.25 7.51878 4.48122 8.75 6 8.75C6.72015 8.75 7.37565 8.47318 7.86589 8.02015C8.29227 8.52611 8.88345 8.75 9.5 8.75C10.1027 8.75 10.6697 8.48933 11.0654 7.96995C11.4463 7.46993 11.625 6.79078 11.625 6C11.625 2.89603 9.10684 0.375 6 0.375C2.8934 0.375 0.375 2.8934 0.375 6C0.375 9.1066 2.8934 11.625 6 11.625C6.60258 11.625 7.18442 11.53 7.73055 11.3536C8.12471 11.2262 8.34102 10.8035 8.21368 10.4093C8.08635 10.0152 7.6636 9.79886 7.26945 9.92619C6.87048 10.0551 6.44414 10.125 6 10.125C3.72183 10.125 1.875 8.27817 1.875 6ZM7.25 6C7.25 5.30964 6.69036 4.75 6 4.75C5.30964 4.75 4.75 5.30964 4.75 6C4.75 6.69036 5.30964 7.25 6 7.25C6.69036 7.25 7.25 6.69036 7.25 6Z" fill="white"/>
</svg>
