<svg width="11" height="11" viewBox="0 0 11 11" fill="none" xmlns="http://www.w3.org/2000/svg">
<path d="M2.93102 8.06689C6.11299 11.2489 8.58787 10.8953 9.64853 9.83465C10.2343 9.24887 10.2343 8.29912 9.64853 7.71333L8.93095 6.99576C8.54621 6.61102 7.92242 6.61102 7.53768 6.99576C7.0979 7.43554 6.443 7.58764 5.91359 7.26125C5.55518 7.04028 5.12698 6.72732 4.69878 6.29912C4.27058 5.87092 3.95763 5.44272 3.73666 5.08431C3.41026 4.5549 3.56237 3.9 4.00214 3.46023C4.38689 3.07548 4.38689 2.45169 4.00214 2.06695L3.28457 1.34937C2.69878 0.763588 1.74903 0.763588 1.16325 1.34937C0.102587 2.41003 -0.250965 4.88491 2.93102 8.06689Z" fill="white"/>
</svg>
